<svg width="220" height="25" viewBox="0 0 220 25" fill="none" xmlns="http://www.w3.org/2000/svg">
<path d="M21.9944 1.13965H2.62109V6.83768H12.9345L0 19.7722L3.64674 23.4759L16.8662 10.2565V21.0828H21.9944V1.13965Z" fill="#292929"/>
<path d="M44.1029 0.57019H34.7012V23.3623H44.1029C49.3451 23.3623 52.8209 21.368 54.4733 17.8352C55.2711 16.2398 55.556 14.3024 55.556 11.9663C55.556 9.63006 55.2141 7.69273 54.4733 6.09728C52.8779 2.5645 49.3451 0.57019 44.1029 0.57019ZM49.573 16.0688C48.6044 18.1201 46.667 19.2597 43.3622 19.2597H39.7154V4.67277H43.3622C46.667 4.67277 48.6613 5.7554 49.573 7.86367C50.0859 8.9463 50.3138 10.1999 50.3138 11.9663C50.3138 13.7326 50.0859 14.9862 49.573 16.0688Z" fill="#292929"/>
<path d="M59.8853 23.3623H75.099V19.3737H64.8995V13.7326H75.042V9.85798H64.8995V4.55881H75.099V0.57019H59.8853V23.3623Z" fill="#292929"/>
<path d="M90.5418 9.85774C87.6928 9.117 85.0147 8.71814 84.3309 7.23665C84.217 6.89477 84.16 6.60986 84.16 6.211C84.16 5.81214 84.217 5.52724 84.3879 5.18536C84.8438 4.15971 86.1543 3.58991 87.8637 3.58991C89.6871 3.58991 90.8837 4.21669 91.4535 5.3563C91.7384 5.9261 91.8523 6.60986 91.8523 7.40759H96.9806C96.9806 6.09704 96.7527 5.0714 96.3538 4.10273C95.1002 1.48164 92.1372 0.0571289 88.0916 0.0571289C83.9321 0.0571289 80.7982 1.5956 79.6586 4.10273C79.2597 4.95744 79.0318 5.81214 79.0318 6.83779C79.0318 7.86343 79.2597 8.66116 79.5446 9.4019C80.5133 11.5102 82.9064 12.5358 85.6985 13.2766C88.6045 14.0743 91.5105 14.5301 92.3082 16.2395C92.4791 16.5814 92.5931 16.9233 92.5931 17.4361C92.5931 17.835 92.4791 18.2338 92.3082 18.6897C91.7954 19.7723 90.3709 20.3421 88.4335 20.3421C86.3253 20.3421 85.0147 19.6584 84.3879 18.4048C84.103 17.835 84.046 17.0942 84.046 16.2965H78.5759C78.6329 17.6071 78.8039 18.7467 79.2597 19.7723C80.5133 22.3934 83.5332 24.0458 88.2626 24.0458C92.764 24.0458 96.1259 22.5644 97.4364 19.8293C97.8353 18.9746 98.0632 18.0059 98.0632 16.8663C98.0632 15.7837 97.8353 14.872 97.5504 14.0743C96.3538 11.6241 93.6187 10.6555 90.5418 9.85774Z" fill="#292929"/>
<path d="M106.952 0.57019H101.995V23.3623H106.952V0.57019Z" fill="#292929"/>
<path d="M123.192 14.587H129.061C129.004 15.6126 128.833 16.2964 128.548 17.0371C127.694 18.8605 125.813 19.7722 123.192 19.7722C120.457 19.7722 118.463 18.7465 117.494 16.6952C116.924 15.4417 116.696 14.1311 116.696 11.9659C116.696 9.80061 116.924 8.43308 117.494 7.2365C118.463 5.18521 120.343 4.15956 123.078 4.15956C124.788 4.15956 126.269 4.55842 127.238 5.47011C128.093 6.15387 128.548 7.17952 128.719 8.43308H133.848C133.62 6.03991 132.594 3.98862 130.942 2.50713C129.061 0.854704 126.383 0 123.135 0C117.893 0 114.36 2.10827 112.537 5.86897C111.739 7.5214 111.34 9.51571 111.34 11.9659C111.34 14.416 111.739 16.4103 112.537 18.0628C114.303 21.7665 117.893 23.9317 123.021 23.9317C127.808 23.9317 131.112 22.1084 132.822 18.5186C133.677 16.6952 134.018 14.6439 134.018 12.4787V10.9402H123.192V14.587Z" fill="#292929"/>
<path d="M153.961 16.2398L143.477 0.57019H138.349V23.3623H143.249V7.74971L153.676 23.3623H158.805V0.57019H153.961V16.2398Z" fill="#292929"/>
<path d="M186.269 18.3477C185.244 19.2024 183.819 19.7152 182.053 19.7152C179.489 19.7152 177.608 18.6895 176.64 16.6952C176.07 15.4986 175.842 14.0172 175.842 11.9659C175.842 9.91457 176.07 8.49006 176.64 7.29348C177.551 5.35615 179.318 4.21654 182.053 4.21654C183.819 4.21654 185.13 4.67238 186.155 5.52709C187.124 6.38179 187.637 7.5214 187.694 9.05987H192.993C192.879 6.43877 191.91 4.21654 190.03 2.62109C188.093 0.968665 185.415 0 182.224 0C177.039 0 173.449 2.16525 171.796 5.81199C170.999 7.57838 170.6 9.57269 170.6 11.9659C170.6 14.359 170.999 16.3533 171.796 18.1197C173.563 21.8235 177.153 23.9317 182.281 23.9317C185.472 23.9317 188.321 23.02 190.201 21.3106C191.967 19.7722 193.05 17.6069 193.107 14.9858H187.808C187.751 16.4673 187.181 17.5499 186.269 18.3477Z" fill="#292929"/>
<path d="M218.689 5.75501C216.98 2.16525 213.447 0 208.319 0C203.134 0 199.544 2.16525 197.892 5.75501C197.094 7.5214 196.695 9.62967 196.695 11.9659C196.695 14.3021 197.094 16.4103 197.949 18.1767C199.658 21.8235 203.191 23.9317 208.319 23.9317C213.504 23.9317 216.98 21.8235 218.746 18.1767C219.601 16.4103 220 14.3021 220 11.9659C220 9.62967 219.487 7.5214 218.689 5.75501ZM213.789 16.4673C212.877 18.4616 211.111 19.6012 208.262 19.6012C205.413 19.6012 203.59 18.4046 202.735 16.4673C202.165 15.2137 201.937 13.8462 201.937 11.9089C201.937 9.97155 202.165 8.60402 202.735 7.35046C203.647 5.41313 205.413 4.21654 208.262 4.21654C211.111 4.21654 212.934 5.41313 213.789 7.35046C214.416 8.60402 214.587 9.97155 214.587 11.9089C214.587 13.8462 214.359 15.2707 213.789 16.4673Z" fill="#292929"/>
</svg>
